<?xml version="1.0" encoding="UTF-8" standalone="no"?>
<!-- Created with Inkscape (http://www.inkscape.org/) -->

<svg
   width="109.88201mm"
   height="21.382999mm"
   viewBox="0 0 109.88201 21.382999"
   version="1.1"
   id="svg1"
   xml:space="preserve"
   xmlns="http://www.w3.org/2000/svg"
   xmlns:svg="http://www.w3.org/2000/svg"><defs
     id="defs1" /><g
     id="layer1"><g
       id="g42"
       transform="translate(-0.1322913)"><path
         style="fill:#4380d1;fill-opacity:1;stroke:none;stroke-width:0.0180586;stroke-dashoffset:85.8076;stroke-opacity:1"
         d="m 2.7362516,16.56759 c -0.84948,-0.105179 -1.4983199,-0.397797 -2.01148995,-0.907147 -0.48977,-0.486131 -0.5924,-0.734585 -0.59247,-1.434362 -5e-5,-0.489588 0.005,-0.515238 0.18552,-0.87963 0.33824,-0.684152 0.75808005,-0.979738 1.44668995,-1.018534 0.98718,-0.05562 1.59506,0.505007 1.59184,1.46808 -10e-4,0.394872 -0.0953,0.604832 -0.4455,0.995195 -0.30412,0.338995 -0.36519,0.495599 -0.26382,0.676459 0.0977,0.174271 0.29773,0.254612 0.69795,0.280296 0.55603,0.03568 0.90485,-0.138883 1.1981898,-0.599622 0.21496,-0.337635 4.07591,-12.7338638 4.08125,-13.1035208 0.005,-0.327695 -0.0982,-0.536578 -0.33946,-0.688877 -0.23272,-0.146905 -0.43231,-0.200613 -1.08128,-0.290955 -0.62083,-0.08643 -0.74342,-0.18043504 -0.59557,-0.45670804 0.0483,-0.09021 0.14236,-0.09242 3.9322906,-0.09242 2.95627,0 3.89651,0.01368 3.94016,0.05734 0.0755,0.07547 0.0735,0.299831 -0.003,0.363509 -0.0333,0.02767 -0.21072,0.07605 -0.39418,0.10751804 -0.67351,0.115518 -1.31516,0.45483 -1.69411,0.895864 -0.4211,0.490092 -0.48369,0.668988 -2.17639,6.22056 -1.0650506,3.4930658 -1.6590906,5.3686078 -1.7554706,5.5424708 -0.77743,1.402459 -2.15069,2.40921 -3.80967,2.79292 -0.3915498,0.09056 -1.4405398,0.129841 -1.9111998,0.07156 z"
         id="path31-7" /><path
         style="fill:#4380d1;fill-opacity:1;stroke:none;stroke-width:0.0180586;stroke-dashoffset:85.8076;stroke-opacity:1"
         d="m 20.096592,16.599984 c -0.29677,-0.09742 -0.45938,-0.233729 -0.61592,-0.516311 -0.13462,-0.243025 -0.14078,-0.279916 -0.13837,-0.827721 l 0.003,-0.573359 0.40981,-1.266168 c 0.2254,-0.696392 0.42553,-1.31992 0.44474,-1.385617 0.0192,-0.0657 -0.0999,0.07406 -0.26476,0.310569 -0.71819,1.030545 -1.36638,1.823157 -2.05184,2.509023 -0.80447,0.804959 -1.73905,1.500806 -2.24596,1.672262 -0.76131,0.257502 -1.63419,-0.04267 -1.96027,-0.674111 -0.14274,-0.276404 -0.20856,-0.924317 -0.14393,-1.416802 0.0755,-0.575618 0.0741,-0.570644 1.12316,-3.95019 0.9837,-3.1690098 1.02625,-3.3498128 0.83638,-3.5536158 -0.13013,-0.139682 -0.28171,-0.171099 -0.66891,-0.138637 -0.26412,0.02215 -0.33054,0.01365 -0.35312,-0.0452 -0.0496,-0.129151 -0.0294,-0.433877 0.0319,-0.48337 0.0547,-0.04416 4.76464,-0.840891 4.7945,-0.811038 0.007,0.0072 -0.57739,1.872523 -1.29907,4.145183 -0.72167,2.2726608 -1.32479,4.2112118 -1.34027,4.3078918 -0.0237,0.147989 -0.008,0.19615 0.10068,0.304598 0.11336,0.113361 0.15412,0.125347 0.33973,0.09991 0.36738,-0.05036 0.64789,-0.234403 1.11741,-0.733156 1.92991,-2.050053 3.1132,-4.3664038 3.6075,-7.0618988 l 0.10514,-0.57336 1.5166,-0.08809 c 0.83413,-0.04845 1.5276,-0.0771 1.54103,-0.06367 0.0134,0.01344 -0.57284,1.945164 -1.30283,4.2927278 -0.73,2.347565 -1.32797,4.345244 -1.32883,4.439287 -0.002,0.250027 0.12948,0.426031 0.31988,0.427241 0.13633,8.74e-4 0.22952,-0.07742 0.80487,-0.676147 0.62992,-0.655511 0.65571,-0.676126 0.80771,-0.645726 0.18878,0.03776 0.28549,0.110809 0.28577,0.21586 1.1e-4,0.04277 -0.11707,0.250609 -0.2604,0.461863 -0.81078,1.19497 -1.76951,1.951205 -2.81098,2.21729 -0.50087,0.127964 -1.1465,0.164976 -1.4039,0.08048 z"
         id="path32-9" /><path
         style="fill:#4380d1;fill-opacity:1;stroke:none;stroke-width:0.0180586;stroke-dashoffset:85.8076;stroke-opacity:1"
         d="m 19.270942,4.0635052 c 0.002,-0.04599 0.30804,-0.975905 0.68107,-2.06648 l 0.67823,-1.98286704 1.52875,-0.01217 c 0.84082,-0.0067 1.65018,0.0041 1.79859,0.02389 l 0.26985,0.03605 -1.89308,2.04259204 -1.89307,2.042593 h -0.58659 c -0.52788,0 -0.58631,-0.0084 -0.58375,-0.08362 z"
         id="path33-9" /><path
         style="fill:#4380d1;fill-opacity:1;stroke:none;stroke-width:0.0180586;stroke-dashoffset:85.8076;stroke-opacity:1"
         d="m 22.600752,21.369121 c -0.0457,-0.04741 -0.0453,-0.267946 7.9e-4,-0.335898 0.0193,-0.02853 0.18556,-0.08924 0.36946,-0.134902 0.70965,-0.176211 1.21297,-0.584757 1.526,-1.238652 0.24254,-0.506675 3.4673,-11.7862108 3.50154,-12.2477058 0.024,-0.323503 0.0183,-0.349612 -0.10181,-0.469767 -0.12689,-0.126894 -0.12857,-0.127141 -0.63912,-0.09331 -0.28154,0.01865 -0.56564,0.03655 -0.63134,0.03975 -0.1123,0.0055 -0.12029,-0.01016 -0.13355,-0.261268 -0.009,-0.177105 0.007,-0.282861 0.0478,-0.313889 0.0739,-0.05585 4.81356,-0.894651 4.84991,-0.858303 0.0312,0.03117 -0.102,0.839682 -0.21964,1.333429 l -0.0874,0.366707 0.12459,-0.0959 c 1.04859,-0.807104 1.75287,-1.216922 2.34636,-1.365348 0.45498,-0.113782 1.28115,-0.06982 1.79497,0.09552 0.6181,0.198895 1.07564,0.592037 1.29219,1.110337 0.24194,0.579027 0.36404,1.847577 0.26208,2.722823 -0.21167,1.8170588 -1.29231,3.9633658 -2.64811,5.2595188 -0.92429,0.883634 -2.00432,1.456687 -3.27505,1.737717 -0.8627,0.190789 -1.84786,0.04183 -2.37313,-0.358813 l -0.15044,-0.114741 -0.46215,1.728747 c -0.56554,2.115494 -0.57729,2.289851 -0.17688,2.626769 0.18545,0.156048 0.37619,0.216983 0.81669,0.260899 l 0.35685,0.03558 v 0.2389 0.2389 l -0.64503,0.03002 c -1.10846,0.0516 -5.70787,0.101929 -5.74554,0.06287 z m 8.20103,-5.563316 c 0.56246,-0.21554 1.40802,-1.175247 1.93441,-2.195544 0.6928,-1.342866 1.01276,-2.799949 1.01137,-4.6056898 -7.9e-4,-0.986474 -0.0299,-1.166044 -0.23535,-1.449632 -0.19906,-0.274802 -0.42916,-0.372996 -0.87186,-0.372062 -0.33051,7.93e-4 -0.40174,0.01923 -0.76447,0.199046 -0.2278,0.112916 -0.52729,0.313502 -0.69567,0.465928 -0.58388,0.528577 -0.48873,0.276805 -1.49274,3.9499188 l -0.90608,3.314843 0.13025,0.215009 c 0.13554,0.223756 0.48395,0.492253 0.74213,0.571904 0.24252,0.07482 0.83424,0.02651 1.14801,-0.09372 z"
         id="path34-6" /><path
         style="fill:#4380d1;fill-opacity:1;stroke:none;stroke-width:0.0180586;stroke-dashoffset:85.8076;stroke-opacity:1"
         d="m 39.112702,16.546026 c -0.33349,-0.07251 -0.44374,-0.123178 -0.69303,-0.318535 -0.34211,-0.268089 -0.51878,-0.870351 -0.42741,-1.456981 0.028,-0.179749 0.51373,-1.788882 1.07941,-3.575851 0.56568,-1.7869688 1.0491,-3.3744858 1.07427,-3.5278148 0.10686,-0.65097 -0.10695,-0.843216 -0.93844,-0.843782 -0.35033,-2.38e-4 -0.39416,-0.01032 -0.42164,-0.0969 -0.0385,-0.121393 0.0134,-0.368281 0.0876,-0.416454 0.0605,-0.03927 4.91849,-0.915897 4.94651,-0.892598 0.009,0.0077 -0.61961,2.033667 -1.39757,4.502078 -0.77795,2.4684098 -1.41446,4.5298008 -1.41446,4.5808668 0,0.169709 0.17512,0.301987 0.3998,0.301987 0.37538,0 0.82683,-0.394752 1.40464,-1.228236 0.15069,-0.217366 0.30624,-0.39537 0.34565,-0.395567 0.12841,-6.35e-4 0.38224,0.185768 0.38224,0.280704 0,0.12571 -0.58691,1.000189 -0.9707,1.446323 -0.49144,0.571262 -1.39914,1.295824 -1.90204,1.518278 -0.42102,0.186238 -1.03804,0.234842 -1.55486,0.122481 z"
         id="path35-7" /><path
         style="fill:#4380d1;fill-opacity:1;stroke:none;stroke-width:0.0180586;stroke-dashoffset:85.8076;stroke-opacity:1"
         d="m 42.193542,3.4844382 c -0.51916,-0.209269 -0.87475,-0.55037 -1.04517,-1.002588 -0.14501,-0.38477 -0.11618,-1.025242 0.0617,-1.370936 0.17353,-0.33720604 0.48466,-0.63218404 0.84904,-0.80496004 0.27634,-0.131024 0.35798,-0.147132 0.74059,-0.146127 0.33307,7.94e-4 0.49145,0.02556 0.70245,0.109474 0.38063,0.151376 0.71747,0.469437 0.90867,0.85801004 0.142,0.288594 0.15674,0.359084 0.15674,0.749421 0,0.379553 -0.0166,0.464759 -0.13976,0.715505 -0.1725,0.351329 -0.47067,0.647514 -0.82774,0.822211 -0.36147,0.176853 -1.05572,0.211397 -1.40653,0.06999 z"
         id="path36-3" /><path
         style="fill:#4380d1;fill-opacity:1;stroke:none;stroke-width:0.0180586;stroke-dashoffset:85.8076;stroke-opacity:1"
         d="m 45.397962,16.555166 c -0.41327,-0.140873 -0.62507,-0.308217 -0.77767,-0.61445 -0.1088,-0.218343 -0.12439,-0.30886 -0.12439,-0.722474 0,-0.285933 0.0381,-0.65969 0.0963,-0.945482 0.053,-0.259942 0.55824,-1.91491 1.12282,-3.677707 0.56459,-1.7627958 1.02652,-3.2177978 1.02652,-3.2333388 0,-0.01553 -0.32275,-0.01429 -0.71722,0.0028 l -0.71721,0.03104 0.0257,-0.178869 c 0.0142,-0.09838 0.0453,-0.326286 0.0693,-0.506462 0.0239,-0.180176 0.0502,-0.33224 0.0584,-0.337921 0.008,-0.0057 0.19336,-0.05702 0.41156,-0.114096 0.77714,-0.203274 1.55893,-0.649804 2.32673,-1.328933 0.23651,-0.209198 0.83581,-0.825527 1.33178,-1.369619 l 0.90177,-0.989261 h 0.37635 c 0.25519,0 0.37635,0.01797 0.37635,0.05582 0,0.0307 -0.21878,0.740047 -0.48618,1.576324 -0.2674,0.836276 -0.47496,1.53172 -0.46125,1.545426 0.0137,0.0137 0.29861,0.0388 0.63311,0.05575 0.58688,0.02975 0.60726,0.03433 0.58166,0.130773 -0.0146,0.05497 -0.0959,0.406435 -0.18065,0.781029 l -0.15412,0.68108 -0.65291,-0.03117 -0.65291,-0.03117 -0.0761,0.234016 c -0.5791,1.782115 -2.19401,7.1151238 -2.1991,7.2622488 -0.019,0.550602 0.48142,0.452986 1.19631,-0.233341 0.21576,-0.207132 0.4741,-0.503597 0.57409,-0.658809 0.14673,-0.227754 0.20634,-0.282284 0.30896,-0.282622 0.15367,-5.03e-4 0.39504,0.258702 0.35066,0.376567 -0.0971,0.257902 -0.5814,0.936986 -0.90783,1.273 -1.03489,1.065259 -2.61744,1.60555 -3.66093,1.249856 z"
         id="path37-5" /><path
         style="fill:#4380d1;fill-opacity:1;stroke:none;stroke-width:0.0180586;stroke-dashoffset:85.8076;stroke-opacity:1"
         d="m 54.075782,16.663355 c -1.18548,-0.183818 -2.0189,-0.748389 -2.47477,-1.676448 -0.2682,-0.54601 -0.36381,-0.908172 -0.40103,-1.51913 -0.10297,-1.690141 0.65066,-3.446376 2.23912,-5.2180108 1.23931,-1.382223 2.96408,-2.342581 4.80071,-2.673056 0.65957,-0.118679 1.46854,-0.108643 1.83235,0.02273 0.57878,0.209008 0.94777,0.696759 0.99171,1.310899 0.0612,0.854861 -0.6138,2.26771 -1.50952,3.1597778 -0.67086,0.668121 -1.40567,1.109176 -2.39042,1.434815 -0.69755,0.230667 -1.28353,0.332669 -2.11626,0.368382 l -0.65261,0.02799 -0.0858,0.291707 c -0.11646,0.395803 -0.11771,1.112713 -0.003,1.447353 0.28296,0.821986 1.04826,1.420511 1.89527,1.482243 0.79347,0.05783 1.87785,-0.382387 3.09657,-1.257094 0.27092,-0.19444 0.52042,-0.353527 0.55444,-0.353527 0.0899,0 0.31472,0.221372 0.31472,0.309838 0,0.04153 -0.26338,0.339113 -0.5853,0.661306 -1.13645,1.137418 -2.11865,1.732501 -3.41724,2.070391 -0.52196,0.135812 -1.56743,0.19077 -2.0894,0.109834 z m 1.60062,-5.784688 c 0.1971,-0.04905 0.55892,-0.18793 0.80406,-0.308612 0.35924,-0.176855 0.52209,-0.295121 0.83947,-0.6096658 0.58461,-0.579398 0.90879,-1.18371 1.13007,-2.106619 0.11915,-0.496962 0.11748,-0.759532 -0.006,-1.015556 -0.12392,-0.255973 -0.32524,-0.403434 -0.59185,-0.433485 -0.29204,-0.03292 -0.50453,0.0532 -0.93888,0.380495 -0.89014,0.670737 -1.56886,1.724972 -2.04825,3.181495 -0.12715,0.3862978 -0.24654,0.7850848 -0.26532,0.8861918 l -0.0342,0.183832 0.37649,-0.03444 c 0.20707,-0.01894 0.53774,-0.07458 0.73484,-0.123634 z"
         id="path38-6" /><path
         style="fill:#4380d1;fill-opacity:1;stroke:none;stroke-width:0.0180586;stroke-dashoffset:85.8076;stroke-opacity:1"
         d="m 62.064352,16.29582 c -0.37061,-0.01444 -0.41774,-0.02612 -0.39588,-0.09811 0.11891,-0.391705 2.42323,-8.3994498 2.46532,-8.5672458 0.0702,-0.279734 0.001,-0.56001 -0.19032,-0.773703 l -0.13751,-0.153413 -0.42156,0.0191 c -0.23186,0.0105 -0.51831,0.02127 -0.63657,0.02389 l -0.21501,0.0048 -0.0152,-0.185472 c -0.008,-0.102008 0.004,-0.20506 0.0283,-0.229003 0.0508,-0.05081 4.67868,-0.908338 4.79645,-0.888769 0.0667,0.01109 -0.0528,0.428437 -0.74899,2.61676 -0.45559,1.431965 -0.82265,2.6092638 -0.81569,2.6162198 0.007,0.007 0.15048,-0.282219 0.31896,-0.642611 0.67764,-1.4495748 1.49422,-2.8331628 2.18551,-3.7030808 0.71422,-0.898771 1.65251,-1.149319 2.228781,-0.595141 0.285816,0.274855 0.327263,0.46023 0.300849,1.345557 -0.01849,0.619504 -0.039,0.768535 -0.151278,1.098937 -0.246229,0.724587 -0.553675,1.106163 -0.932164,1.156929 -0.394818,0.05296 -0.629198,-0.107515 -0.894538,-0.612457 -0.43225,-0.822555 -0.78256,-0.756983 -1.388,0.25981 -1.08247,1.8179088 -2.02027,4.1313968 -2.59719,6.4070678 l -0.23101,0.911237 -1.0663,0.0025 c -0.58646,0.0014 -1.25561,-0.0048 -1.48699,-0.01384 z"
         id="path39-9" /><path
         style="fill:#e2ac26;fill-opacity:1;stroke:none;stroke-width:0.0109079;stroke-dashoffset:85.8076;stroke-opacity:1"
         d="m 83.392915,16.262605 c -0.01196,-0.03072 -0.735797,-1.661346 -1.608833,-3.623629 -1.139418,-2.561043 -1.594976,-3.5564208 -1.614453,-3.5275068 -0.01537,0.02216 -0.664638,1.6420828 -1.443829,3.5998408 -1.205056,3.027805 -1.425122,3.55956 -1.473061,3.55956 -0.04783,0 -0.357135,-0.739934 -2.050842,-4.906277 L 73.207399,6.4583152 72.975664,6.2851542 c -0.12745,-0.09524 -0.317874,-0.234781 -0.423132,-0.310093 -0.134625,-0.09628 -0.191397,-0.155435 -0.191397,-0.199243 0,-0.06147 0.0052,-0.06205 0.350864,-0.04345 0.19297,0.01043 1.34884,0.01886 2.568589,0.01886 1.220432,0 2.217707,0.01111 2.217707,0.02484 0,0.01367 -0.10712,0.119369 -0.23809,0.234883 -0.131038,0.115525 -0.300038,0.267434 -0.37574,0.337589 l -0.137701,0.127552 0.710972,2.314374 c 0.391048,1.2729028 0.720096,2.3243338 0.731234,2.3365098 0.02084,0.02288 1.656601,-3.3288208 1.656601,-3.3945748 0,-0.04818 -0.386435,-0.920698 -0.535942,-1.210137 -0.06389,-0.123556 -0.14351,-0.23902 -0.177269,-0.256587 -0.171716,-0.0896 -0.623994,-0.443163 -0.623994,-0.48781 0,-0.04302 0.041,-0.05228 0.295819,-0.06673 0.445067,-0.02525 4.697046,-0.03866 4.697046,-0.01487 0,0.01144 -0.17616,0.18758 -0.391476,0.391545 l -0.391474,0.370844 0.846025,2.272265 c 0.465314,1.249747 0.852517,2.2722868 0.860462,2.2723108 0.01196,3.8e-5 1.626463,-4.2766788 1.651423,-4.3745428 0.0052,-0.01738 -0.20949,-0.210601 -0.475359,-0.42939 -0.311469,-0.256299 -0.483423,-0.417018 -0.483423,-0.451823 0,-0.05209 0.05313,-0.05402 1.486318,-0.05402 1.17415,0 1.486319,0.0077 1.486319,0.03627 0,0.01996 -0.180122,0.189563 -0.400257,0.376917 l -0.400255,0.340642 -0.739145,1.924705 c -0.406526,1.058587 -1.25771,3.2753728 -1.891512,4.9261898 -0.804322,2.094909 -1.166292,3.004314 -1.198445,3.010845 -0.02528,0.0052 -0.05569,-0.01572 -0.06749,-0.04648 z"
         id="path40-6" /><path
         style="fill:#e2ac26;fill-opacity:1;stroke:none;stroke-width:0.0109079;stroke-dashoffset:85.8076;stroke-opacity:1"
         d="m 92.967504,16.215944 c -0.667578,-0.119865 -1.280894,-0.433082 -1.810327,-0.9245 -0.526578,-0.488773 -0.999563,-1.230852 -1.309425,-2.054375 -0.42766,-1.136647 -0.618579,-2.805966 -0.443497,-3.8778748 0.269286,-1.64862 1.108273,-2.893712 2.473873,-3.671334 0.522649,-0.297618 1.053755,-0.410314 1.940766,-0.411804 0.713054,-0.0013 1.021174,0.04237 1.565424,0.221322 0.5949,0.195621 1.02476,0.494199 1.52887,1.061949 0.86556,0.974846 1.27806,2.14952 1.27806,3.6394748 v 0.372129 h -3.00149 c -2.341094,0 -3.001479,0.0077 -3.001479,0.03518 0,0.01934 0.05245,0.293144 0.116517,0.608439 0.224832,1.106403 0.496356,1.737012 0.962422,2.235247 0.313621,0.335273 0.708751,0.592933 1.05675,0.689083 0.26967,0.0745 0.8752,0.06883 1.22866,-0.01145 0.69674,-0.158391 1.34433,-0.518488 1.79444,-0.997818 0.1565,-0.166728 0.19383,-0.192057 0.28254,-0.192057 0.11515,0 0.32521,0.0962 0.34978,0.160218 0.0154,0.04205 -0.24616,0.66837 -0.45324,1.082316 -0.68529,1.369881 -1.88252,2.006044 -3.880405,2.061882 -0.314031,0.0087 -0.531004,4.51e-4 -0.678222,-0.02597 z m 2.442814,-7.1375098 c -0.0301,-0.663781 -0.12216,-1.167607 -0.31055,-1.701778 -0.2073,-0.587587 -0.42996,-0.88287 -0.796767,-1.056621 -0.173579,-0.08221 -0.223005,-0.09244 -0.440815,-0.09125 -0.331593,0.0019 -0.511733,0.08749 -0.81148,0.38588 -0.171187,0.170418 -0.249024,0.277016 -0.351804,0.481785 -0.288301,0.574373 -0.395182,1.097034 -0.395182,1.932537 v 0.474109 h 1.562943 1.562945 z"
         id="path41-6" /><path
         style="fill:#e2ac26;fill-opacity:1;stroke:none;stroke-width:0.0109079;stroke-dashoffset:85.8076;stroke-opacity:1"
         d="m 104.32253,16.144761 c -0.66353,-0.121147 -1.30225,-0.41781 -1.79683,-0.834539 -0.142,-0.119644 -0.15909,-0.126631 -0.23088,-0.09436 -0.0426,0.01917 -0.45539,0.235165 -0.91721,0.479994 -0.46181,0.24483 -0.85468,0.445148 -0.87302,0.445148 -0.0183,0 -0.0334,-0.0357 -0.0334,-0.07937 -3.3e-4,-0.633504 -0.14797,-14.3930468 -0.15452,-14.3995888 -0.005,-0.005 -0.27424,-0.117302 -0.598282,-0.249552 -0.49048,-0.200162 -0.59072,-0.250915 -0.59841,-0.302973 l -0.008,-0.06253 h 2.160032 2.16004 l 0.0799,2.388203 c 0.044,1.313511 0.0877,2.520641 0.0973,2.682513 l 0.0173,0.294311 0.16179,-0.124325 c 0.49617,-0.381246 1.04177,-0.678545 1.4908,-0.812347 0.55542,-0.165498 1.3899,-0.119917 1.97551,0.107939 1.41375,0.550065 2.39668,1.719873 2.66734,3.174488 0.11268,0.605485 0.12296,1.4972018 0.0273,2.3615068 -0.18624,1.681933 -0.79531,2.967022 -1.85764,3.919466 -0.15081,0.135207 -0.36332,0.303736 -0.47228,0.374529 -0.4764,0.309534 -1.12793,0.576551 -1.70668,0.699457 -0.41844,0.08886 -1.19222,0.104454 -1.5889,0.03204 z m 1.29495,-1.006648 c 0.24483,-0.115183 0.47294,-0.341908 0.59417,-0.590522 0.0487,-0.09983 0.14007,-0.389306 0.20312,-0.643278 0.50931,-2.051856 0.53237,-4.1039838 0.0681,-6.0606948 -0.11732,-0.494482 -0.20519,-0.690957 -0.40846,-0.913364 -0.17668,-0.193323 -0.37242,-0.302809 -0.64177,-0.358969 -0.52398,-0.109255 -1.18526,0.156733 -1.67855,0.675166 l -0.16594,0.174406 v 3.5166238 3.516625 l 0.20924,0.20588 c 0.26167,0.257479 0.51701,0.422037 0.79874,0.514765 0.1869,0.06152 0.2625,0.07079 0.52162,0.06394 0.2718,-0.0072 0.32331,-0.01757 0.49972,-0.100555 z"
         id="path42-5" /></g></g></svg>
