<?xml version="1.0" encoding="UTF-8" standalone="no"?>
<!-- Created with Inkscape (http://www.inkscape.org/) -->

<svg
   width="75.546997mm"
   height="23.989002mm"
   viewBox="0 0 75.546997 23.989002"
   version="1.1"
   id="svg1"
   xml:space="preserve"
   xmlns="http://www.w3.org/2000/svg"
   xmlns:svg="http://www.w3.org/2000/svg"><defs
     id="defs1" /><g
     id="layer1"><g
       id="g43"
       transform="translate(162.86353,-13.85749)"><path
         style="fill:#4380d1;fill-opacity:1;stroke:none;stroke-width:0.0180586;stroke-dashoffset:85.8076;stroke-opacity:1"
         d="m -160.25957,30.417007 c -0.84948,-0.105179 -1.49832,-0.397797 -2.01149,-0.907147 -0.48977,-0.486131 -0.5924,-0.734585 -0.59247,-1.434362 -5e-5,-0.489588 0.005,-0.515238 0.18552,-0.87963 0.33824,-0.684152 0.75808,-0.979738 1.44669,-1.018534 0.98718,-0.05562 1.59506,0.505007 1.59184,1.46808 -0.001,0.394872 -0.0953,0.604832 -0.4455,0.995195 -0.30412,0.338995 -0.36519,0.495599 -0.26382,0.676459 0.0977,0.174271 0.29773,0.254612 0.69795,0.280296 0.55603,0.03568 0.90485,-0.138883 1.19819,-0.599622 0.21496,-0.337635 4.07591,-12.733864 4.08125,-13.103521 0.005,-0.327695 -0.0982,-0.536578 -0.33946,-0.688877 -0.23272,-0.146905 -0.43231,-0.200613 -1.08128,-0.290955 -0.62083,-0.08643 -0.74342,-0.180435 -0.59557,-0.456708 0.0483,-0.09021 0.14236,-0.09242 3.9323,-0.09242 2.95627,0 3.89651,0.01368 3.94016,0.05734 0.0755,0.07547 0.0735,0.299831 -0.003,0.363509 -0.0333,0.02767 -0.21072,0.07605 -0.39418,0.107518 -0.67351,0.115518 -1.31516,0.45483 -1.69411,0.895864 -0.4211,0.490092 -0.48369,0.668988 -2.17639,6.22056 -1.06506,3.493066 -1.6591,5.368608 -1.75548,5.542471 -0.77743,1.402459 -2.15069,2.40921 -3.80967,2.79292 -0.39155,0.09056 -1.44054,0.129841 -1.9112,0.07156 z"
         id="path31" /><path
         style="fill:#4380d1;fill-opacity:1;stroke:none;stroke-width:0.0180586;stroke-dashoffset:85.8076;stroke-opacity:1"
         d="m -142.89922,30.449401 c -0.29677,-0.09742 -0.45938,-0.233729 -0.61592,-0.516311 -0.13462,-0.243025 -0.14078,-0.279916 -0.13837,-0.827721 l 0.003,-0.573359 0.40981,-1.266168 c 0.2254,-0.696392 0.42553,-1.31992 0.44474,-1.385617 0.0192,-0.0657 -0.0999,0.07406 -0.26476,0.310569 -0.71819,1.030545 -1.36638,1.823157 -2.05184,2.509023 -0.80447,0.804959 -1.73905,1.500806 -2.24596,1.672262 -0.76131,0.257502 -1.63419,-0.04267 -1.96027,-0.674111 -0.14274,-0.276404 -0.20856,-0.924317 -0.14393,-1.416802 0.0755,-0.575618 0.0741,-0.570644 1.12316,-3.95019 0.9837,-3.16901 1.02625,-3.349813 0.83638,-3.553616 -0.13013,-0.139682 -0.28171,-0.171099 -0.66891,-0.138637 -0.26412,0.02215 -0.33054,0.01365 -0.35312,-0.0452 -0.0496,-0.129151 -0.0294,-0.433877 0.0319,-0.48337 0.0547,-0.04416 4.76464,-0.840891 4.7945,-0.811038 0.007,0.0072 -0.57739,1.872523 -1.29907,4.145183 -0.72167,2.272661 -1.32479,4.211212 -1.34027,4.307892 -0.0237,0.147989 -0.008,0.19615 0.10068,0.304598 0.11336,0.113361 0.15412,0.125347 0.33973,0.09991 0.36738,-0.05036 0.64789,-0.234403 1.11741,-0.733156 1.92991,-2.050053 3.1132,-4.366404 3.6075,-7.061899 l 0.10514,-0.57336 1.5166,-0.08809 c 0.83413,-0.04845 1.5276,-0.0771 1.54103,-0.06367 0.0134,0.01344 -0.57284,1.945164 -1.30283,4.292728 -0.73,2.347565 -1.32797,4.345244 -1.32883,4.439287 -0.002,0.250027 0.12948,0.426031 0.31988,0.427241 0.13633,8.74e-4 0.22952,-0.07742 0.80487,-0.676147 0.62992,-0.655511 0.65571,-0.676126 0.80771,-0.645726 0.18878,0.03776 0.28549,0.110809 0.28577,0.21586 1.1e-4,0.04277 -0.11707,0.250609 -0.2604,0.461863 -0.81078,1.19497 -1.76951,1.951205 -2.81098,2.21729 -0.50087,0.127964 -1.1465,0.164976 -1.4039,0.08048 z"
         id="path32" /><path
         style="fill:#4380d1;fill-opacity:1;stroke:none;stroke-width:0.0180586;stroke-dashoffset:85.8076;stroke-opacity:1"
         d="m -143.72487,17.912922 c 0.002,-0.04599 0.30804,-0.975905 0.68107,-2.06648 l 0.67823,-1.982867 1.52875,-0.01217 c 0.84082,-0.0067 1.65018,0.0041 1.79859,0.02389 l 0.26985,0.03605 -1.89308,2.042592 -1.89307,2.042593 h -0.58659 c -0.52788,0 -0.58631,-0.0084 -0.58375,-0.08362 z"
         id="path33" /><path
         style="fill:#4380d1;fill-opacity:1;stroke:none;stroke-width:0.0180586;stroke-dashoffset:85.8076;stroke-opacity:1"
         d="m -140.39506,35.218538 c -0.0457,-0.04741 -0.0453,-0.267946 7.9e-4,-0.335898 0.0193,-0.02853 0.18556,-0.08924 0.36946,-0.134902 0.70965,-0.176211 1.21297,-0.584757 1.526,-1.238652 0.24254,-0.506675 3.4673,-11.786211 3.50154,-12.247706 0.024,-0.323503 0.0183,-0.349612 -0.10181,-0.469767 -0.12689,-0.126894 -0.12857,-0.127141 -0.63912,-0.09331 -0.28154,0.01865 -0.56564,0.03655 -0.63134,0.03975 -0.1123,0.0055 -0.12029,-0.01016 -0.13355,-0.261268 -0.009,-0.177105 0.007,-0.282861 0.0478,-0.313889 0.0739,-0.05585 4.81356,-0.894651 4.84991,-0.858303 0.0312,0.03117 -0.102,0.839682 -0.21964,1.333429 l -0.0874,0.366707 0.12459,-0.0959 c 1.04859,-0.807104 1.75287,-1.216922 2.34636,-1.365348 0.45498,-0.113782 1.28115,-0.06982 1.79497,0.09552 0.6181,0.198895 1.07564,0.592037 1.29219,1.110337 0.24194,0.579027 0.36404,1.847577 0.26208,2.722823 -0.21167,1.817059 -1.29231,3.963366 -2.64811,5.259519 -0.92429,0.883634 -2.00432,1.456687 -3.27505,1.737717 -0.8627,0.190789 -1.84786,0.04183 -2.37313,-0.358813 l -0.15044,-0.114741 -0.46215,1.728747 c -0.56554,2.115494 -0.57729,2.289851 -0.17688,2.626769 0.18545,0.156048 0.37619,0.216983 0.81669,0.260899 l 0.35685,0.03558 v 0.2389 0.2389 l -0.64503,0.03002 c -1.10846,0.0516 -5.70787,0.101929 -5.74554,0.06287 z m 8.20103,-5.563316 c 0.56246,-0.21554 1.40802,-1.175247 1.93441,-2.195544 0.6928,-1.342866 1.01276,-2.799949 1.01137,-4.60569 -7.9e-4,-0.986474 -0.0299,-1.166044 -0.23535,-1.449632 -0.19906,-0.274802 -0.42916,-0.372996 -0.87186,-0.372062 -0.33051,7.93e-4 -0.40174,0.01923 -0.76447,0.199046 -0.2278,0.112916 -0.52729,0.313502 -0.69567,0.465928 -0.58388,0.528577 -0.48873,0.276805 -1.49274,3.949919 l -0.90608,3.314843 0.13025,0.215009 c 0.13554,0.223756 0.48395,0.492253 0.74213,0.571904 0.24252,0.07482 0.83424,0.02651 1.14801,-0.09372 z"
         id="path34" /><path
         style="fill:#4380d1;fill-opacity:1;stroke:none;stroke-width:0.0180586;stroke-dashoffset:85.8076;stroke-opacity:1"
         d="m -123.88311,30.395443 c -0.33349,-0.07251 -0.44374,-0.123178 -0.69303,-0.318535 -0.34211,-0.268089 -0.51878,-0.870351 -0.42741,-1.456981 0.028,-0.179749 0.51373,-1.788882 1.07941,-3.575851 0.56568,-1.786969 1.0491,-3.374486 1.07427,-3.527815 0.10686,-0.65097 -0.10695,-0.843216 -0.93844,-0.843782 -0.35033,-2.38e-4 -0.39416,-0.01032 -0.42164,-0.0969 -0.0385,-0.121393 0.0134,-0.368281 0.0876,-0.416454 0.0605,-0.03927 4.91849,-0.915897 4.94651,-0.892598 0.009,0.0077 -0.61961,2.033667 -1.39757,4.502079 -0.77795,2.468409 -1.41446,4.5298 -1.41446,4.580866 0,0.169709 0.17512,0.301987 0.3998,0.301987 0.37538,0 0.82683,-0.394752 1.40464,-1.228236 0.15069,-0.217366 0.30624,-0.39537 0.34565,-0.395567 0.12841,-6.35e-4 0.38224,0.185768 0.38224,0.280704 0,0.12571 -0.58691,1.000189 -0.9707,1.446323 -0.49144,0.571262 -1.39914,1.295824 -1.90204,1.518278 -0.42102,0.186238 -1.03804,0.234842 -1.55486,0.122481 z"
         id="path35" /><path
         style="fill:#4380d1;fill-opacity:1;stroke:none;stroke-width:0.0180586;stroke-dashoffset:85.8076;stroke-opacity:1"
         d="m -120.80227,17.333855 c -0.51916,-0.209269 -0.87475,-0.55037 -1.04517,-1.002588 -0.14501,-0.38477 -0.11618,-1.025242 0.0617,-1.370936 0.17353,-0.337206 0.48466,-0.632184 0.84904,-0.80496 0.27634,-0.131024 0.35798,-0.147132 0.74059,-0.146127 0.33307,7.94e-4 0.49145,0.02556 0.70245,0.109474 0.38063,0.151376 0.71747,0.469437 0.90867,0.85801 0.142,0.288594 0.15674,0.359084 0.15674,0.749421 0,0.379553 -0.0166,0.464759 -0.13976,0.715505 -0.1725,0.351329 -0.47067,0.647514 -0.82774,0.822211 -0.36147,0.176853 -1.05572,0.211397 -1.40653,0.06999 z"
         id="path36" /><path
         style="fill:#4380d1;fill-opacity:1;stroke:none;stroke-width:0.0180586;stroke-dashoffset:85.8076;stroke-opacity:1"
         d="m -117.59785,30.404583 c -0.41327,-0.140873 -0.62507,-0.308217 -0.77767,-0.61445 -0.1088,-0.218343 -0.12439,-0.30886 -0.12439,-0.722474 0,-0.285933 0.0381,-0.65969 0.0963,-0.945482 0.053,-0.259942 0.55824,-1.91491 1.12282,-3.677707 0.56459,-1.762796 1.02652,-3.217798 1.02652,-3.233339 0,-0.01553 -0.32275,-0.01429 -0.71722,0.0028 l -0.71721,0.03104 0.0257,-0.178869 c 0.0142,-0.09838 0.0453,-0.326286 0.0693,-0.506462 0.0239,-0.180176 0.0502,-0.33224 0.0584,-0.337921 0.008,-0.0057 0.19336,-0.05702 0.41156,-0.114096 0.77714,-0.203274 1.55893,-0.649804 2.32673,-1.328933 0.23651,-0.209198 0.83581,-0.825527 1.33178,-1.369619 l 0.90177,-0.989261 h 0.37635 c 0.25519,0 0.37635,0.01797 0.37635,0.05582 0,0.0307 -0.21878,0.740047 -0.48618,1.576324 -0.2674,0.836276 -0.47496,1.53172 -0.46125,1.545426 0.0137,0.0137 0.29861,0.0388 0.63311,0.05575 0.58688,0.02975 0.60726,0.03433 0.58166,0.130773 -0.0146,0.05497 -0.0959,0.406435 -0.18065,0.781029 l -0.15412,0.68108 -0.65291,-0.03117 -0.65291,-0.03117 -0.0761,0.234016 c -0.5791,1.782115 -2.19401,7.115124 -2.1991,7.262249 -0.019,0.550602 0.48142,0.452986 1.19631,-0.233341 0.21576,-0.207132 0.4741,-0.503597 0.57409,-0.658809 0.14673,-0.227754 0.20634,-0.282284 0.30896,-0.282622 0.15367,-5.03e-4 0.39504,0.258702 0.35066,0.376567 -0.0971,0.257902 -0.5814,0.936986 -0.90783,1.273 -1.03489,1.065259 -2.61744,1.60555 -3.66093,1.249856 z"
         id="path37" /><path
         style="fill:#4380d1;fill-opacity:1;stroke:none;stroke-width:0.0180586;stroke-dashoffset:85.8076;stroke-opacity:1"
         d="m -108.92003,30.512772 c -1.18548,-0.183818 -2.0189,-0.748389 -2.47477,-1.676448 -0.2682,-0.54601 -0.36381,-0.908172 -0.40103,-1.51913 -0.10297,-1.690141 0.65066,-3.446376 2.23912,-5.218011 1.23931,-1.382223 2.96408,-2.342581 4.80071,-2.673056 0.65957,-0.118679 1.46854,-0.108643 1.83235,0.02273 0.57878,0.209008 0.94777,0.696759 0.99171,1.310899 0.0612,0.854861 -0.6138,2.26771 -1.50952,3.159778 -0.67086,0.668121 -1.40567,1.109176 -2.39042,1.434815 -0.69755,0.230667 -1.28353,0.332669 -2.11626,0.368382 l -0.65261,0.02799 -0.0858,0.291707 c -0.11646,0.395803 -0.11771,1.112713 -0.003,1.447353 0.28296,0.821986 1.04826,1.420511 1.89527,1.482243 0.79347,0.05783 1.87785,-0.382387 3.09657,-1.257094 0.27092,-0.19444 0.52042,-0.353527 0.55444,-0.353527 0.0899,0 0.31472,0.221372 0.31472,0.309838 0,0.04153 -0.26338,0.339113 -0.5853,0.661306 -1.13645,1.137418 -2.11865,1.732501 -3.41724,2.070391 -0.52196,0.135812 -1.56743,0.19077 -2.0894,0.109834 z m 1.60062,-5.784688 c 0.1971,-0.04905 0.55892,-0.18793 0.80406,-0.308612 0.35924,-0.176855 0.52209,-0.295121 0.83947,-0.609665 0.58461,-0.579399 0.90879,-1.183711 1.13007,-2.10662 0.11915,-0.496962 0.11748,-0.759532 -0.006,-1.015556 -0.12392,-0.255973 -0.32524,-0.403434 -0.59185,-0.433485 -0.29204,-0.03292 -0.50453,0.0532 -0.93888,0.380495 -0.89014,0.670737 -1.56886,1.724972 -2.04825,3.181496 -0.12715,0.386297 -0.24654,0.785084 -0.26532,0.886191 l -0.0342,0.183832 0.37649,-0.03444 c 0.20707,-0.01894 0.53774,-0.07458 0.73484,-0.123634 z"
         id="path38" /><path
         style="fill:#4380d1;fill-opacity:1;stroke:none;stroke-width:0.0180586;stroke-dashoffset:85.8076;stroke-opacity:1"
         d="m -100.93146,30.145237 c -0.37061,-0.01444 -0.41774,-0.02612 -0.39588,-0.09811 0.11891,-0.391705 2.423225,-8.39945 2.465315,-8.567246 0.0702,-0.279734 0.001,-0.56001 -0.19032,-0.773703 l -0.13751,-0.153413 -0.42156,0.0191 c -0.23186,0.0105 -0.518305,0.02127 -0.636565,0.02389 l -0.21501,0.0048 -0.0152,-0.185472 c -0.008,-0.102008 0.004,-0.20506 0.0283,-0.229003 0.0508,-0.05081 4.678675,-0.908338 4.796445,-0.888769 0.0667,0.01109 -0.0528,0.428437 -0.74899,2.61676 -0.45559,1.431965 -0.82265,2.609264 -0.81569,2.61622 0.007,0.007 0.15048,-0.282219 0.31896,-0.642611 0.67764,-1.449575 1.49422,-2.833163 2.18551,-3.703081 0.71422,-0.898771 1.65251,-1.149319 2.228781,-0.595141 0.285816,0.274855 0.327263,0.46023 0.300849,1.345557 -0.01849,0.619504 -0.039,0.768535 -0.151278,1.098937 -0.246229,0.724587 -0.553675,1.106163 -0.932164,1.156929 -0.394818,0.05296 -0.629198,-0.107515 -0.894538,-0.612457 -0.43225,-0.822555 -0.78256,-0.756983 -1.388,0.25981 -1.08247,1.817909 -2.02027,4.131397 -2.59719,6.407068 l -0.23101,0.911237 -1.0663,0.0025 c -0.586455,0.0014 -1.255605,-0.0048 -1.486985,-0.01384 z"
         id="path39" /><path
         style="fill:#e2ac26;fill-opacity:1;stroke:none;stroke-width:0.00638466;stroke-dashoffset:85.8076;stroke-opacity:1"
         d="m -102.89802,37.810372 c -0.007,-0.01798 -0.43068,-0.972428 -0.94169,-2.121002 -0.66693,-1.499043 -0.93358,-2.081663 -0.94498,-2.064739 -0.009,0.01297 -0.38903,0.961153 -0.84511,2.107078 -0.70535,1.772251 -0.83416,2.083501 -0.86222,2.083501 -0.028,0 -0.20904,-0.433102 -1.20041,-2.871768 l -1.16743,-2.871769 -0.13564,-0.101356 c -0.0746,-0.05575 -0.18606,-0.137423 -0.24767,-0.181505 -0.0788,-0.05635 -0.11203,-0.09098 -0.11203,-0.116622 0,-0.03598 0.003,-0.03632 0.20537,-0.02543 0.11295,0.0061 0.78951,0.01104 1.50346,0.01104 0.71435,0 1.29808,0.0065 1.29808,0.01454 0,0.008 -0.0627,0.06987 -0.13936,0.137483 -0.0767,0.06762 -0.17562,0.156536 -0.21993,0.197599 l -0.0806,0.07466 0.41615,1.354661 c 0.22889,0.745063 0.42149,1.360492 0.42801,1.367619 0.0122,0.01339 0.96965,-1.948443 0.96965,-1.986931 0,-0.0282 -0.22619,-0.538907 -0.3137,-0.708324 -0.0374,-0.07232 -0.084,-0.139904 -0.10376,-0.150186 -0.10051,-0.05244 -0.36524,-0.259395 -0.36524,-0.285528 0,-0.02518 0.024,-0.0306 0.17315,-0.03906 0.26051,-0.01478 2.7493,-0.02263 2.7493,-0.0087 0,0.0067 -0.10311,0.109795 -0.22914,0.229181 l -0.22914,0.217064 0.4952,1.330015 c 0.27236,0.731508 0.499,1.330027 0.50365,1.330041 0.007,2.2e-5 0.95201,-2.503249 0.96662,-2.560531 0.003,-0.01017 -0.12262,-0.12327 -0.27824,-0.251333 -0.18231,-0.150018 -0.28296,-0.244091 -0.28296,-0.264463 0,-0.03049 0.0311,-0.03162 0.86998,-0.03162 0.68726,0 0.86998,0.0045 0.86998,0.02123 0,0.01168 -0.10543,0.110956 -0.23428,0.220619 l -0.23428,0.199387 -0.43264,1.126578 c -0.23795,0.619618 -0.73617,1.917159 -1.10715,2.883424 -0.47079,1.226203 -0.68266,1.758501 -0.70148,1.762324 -0.0148,0.003 -0.0326,-0.0092 -0.0395,-0.02721 z"
         id="path40" /><path
         style="fill:#e2ac26;fill-opacity:1;stroke:none;stroke-width:0.00638466;stroke-dashoffset:85.8076;stroke-opacity:1"
         d="m -97.293775,37.78306 c -0.39075,-0.07016 -0.74974,-0.253494 -1.05963,-0.541133 -0.30822,-0.286091 -0.58507,-0.720449 -0.76644,-1.202478 -0.25032,-0.665308 -0.36207,-1.642403 -0.25959,-2.269818 0.15762,-0.964979 0.6487,-1.693763 1.44802,-2.148925 0.30592,-0.174203 0.61679,-0.240167 1.13598,-0.241039 0.41737,-7.15e-4 0.59772,0.0248 0.91628,0.129545 0.34821,0.114502 0.59982,0.289267 0.89489,0.621586 0.50663,0.570602 0.74808,1.258168 0.74808,2.130277 v 0.217816 h -1.75685 c -1.3703,0 -1.75684,0.0045 -1.75684,0.02059 0,0.01132 0.0307,0.171585 0.0682,0.356135 0.1316,0.647606 0.29053,1.016717 0.56333,1.308347 0.18357,0.196243 0.41485,0.347058 0.61854,0.403337 0.15785,0.04361 0.51228,0.04029 0.71917,-0.0067 0.40782,-0.09271 0.78687,-0.303484 1.05033,-0.584048 0.0916,-0.09759 0.11345,-0.112416 0.16538,-0.112416 0.0674,0 0.19035,0.05631 0.20473,0.09378 0.009,0.02461 -0.14408,0.391214 -0.26529,0.633507 -0.40112,0.801826 -1.10189,1.174188 -2.2713,1.206871 -0.18381,0.0051 -0.31081,2.64e-4 -0.39698,-0.0152 z m 1.42984,-4.177765 c -0.0176,-0.388528 -0.0715,-0.68343 -0.18177,-0.996094 -0.12134,-0.34393 -0.25167,-0.516766 -0.46637,-0.618467 -0.1016,-0.04812 -0.13053,-0.05411 -0.25802,-0.05341 -0.19409,0.0011 -0.29953,0.05121 -0.47498,0.225865 -0.1002,0.09975 -0.14576,0.162145 -0.20592,0.282001 -0.16875,0.336195 -0.23131,0.642122 -0.23131,1.131163 v 0.277508 h 0.91483 0.91483 z"
         id="path41" /><path
         style="fill:#e2ac26;fill-opacity:1;stroke:none;stroke-width:0.00638466;stroke-dashoffset:85.8076;stroke-opacity:1"
         d="m -90.647392,37.741395 c -0.388379,-0.07091 -0.762243,-0.244555 -1.051729,-0.488477 -0.08312,-0.07003 -0.09312,-0.07412 -0.135142,-0.05523 -0.02495,0.01122 -0.266549,0.137648 -0.536863,0.280953 -0.270311,0.143305 -0.500266,0.260556 -0.511006,0.260556 -0.01074,0 -0.01953,-0.0209 -0.01955,-0.04646 -1.91e-4,-0.370806 -0.08661,-8.424615 -0.09044,-8.428444 -0.0029,-0.0029 -0.16052,-0.06866 -0.350191,-0.146069 -0.287092,-0.11716 -0.345762,-0.146867 -0.350262,-0.177338 l -0.005,-0.0366 h 1.264321 1.264322 l 0.04679,1.397876 c 0.02574,0.768831 0.05135,1.475395 0.05692,1.570143 l 0.01013,0.172267 0.0947,-0.07277 c 0.290422,-0.223153 0.609774,-0.39717 0.872603,-0.475488 0.325102,-0.09687 0.813544,-0.07019 1.15632,0.06318 0.827505,0.321967 1.402836,1.006685 1.561263,1.858108 0.06595,0.354406 0.07197,0.87635 0.01596,1.38225 -0.109011,0.984478 -0.465519,1.736673 -1.087327,2.294163 -0.08827,0.07914 -0.212661,0.177784 -0.276436,0.219221 -0.27885,0.181178 -0.660204,0.33747 -0.998966,0.40941 -0.244922,0.05201 -0.697836,0.06114 -0.930019,0.01875 z m 0.757968,-0.589216 c 0.143301,-0.06742 0.276825,-0.200128 0.347779,-0.345648 0.02849,-0.05843 0.08199,-0.227871 0.118893,-0.376527 0.298114,-1.201003 0.311613,-2.402166 0.03987,-3.547478 -0.06867,-0.289433 -0.120102,-0.404435 -0.23908,-0.534615 -0.103418,-0.113157 -0.21799,-0.177242 -0.375648,-0.210114 -0.306694,-0.06395 -0.693761,0.09174 -0.982496,0.395192 l -0.09713,0.102084 v 2.058369 2.05837 l 0.122473,0.120507 c 0.153164,0.150709 0.302622,0.247029 0.467524,0.301305 0.1094,0.03601 0.153651,0.04143 0.305318,0.03742 0.159089,-0.0042 0.189241,-0.01028 0.2925,-0.05886 z"
         id="path42" /></g></g></svg>
