<?xml version="1.0" encoding="UTF-8" standalone="no"?>
<!-- Created with Inkscape (http://www.inkscape.org/) -->

<svg
   width="201.922mm"
   height="81.852997mm"
   viewBox="0 0 201.922 81.852997"
   version="1.1"
   id="svg1"
   xml:space="preserve"
   xmlns="http://www.w3.org/2000/svg"
   xmlns:svg="http://www.w3.org/2000/svg"><defs
     id="defs1" /><g
     id="layer1"><path
       style="fill:#565656;fill-opacity:1;stroke:none;stroke-width:0.306464;stroke-dashoffset:85.8076;stroke-opacity:1"
       d="m 136.49345,79.149767 v -2.70285 h 13.51296 13.51296 l 0.0688,-28.447392 0.0688,-28.447392 2.77041,-0.07702 2.77041,-0.07702 v 14.875062 14.87508 h 13.64934 13.64935 v -15.38851 c 0,-16.75201 -0.0679,-17.670775 -1.53416,-20.770263 -1.55514,-3.2873164 -5.71352,-6.3842644 -9.51681,-7.0876854 -1.94696,-0.360098 -35.95416,-0.360098 -37.90112,0 -0.80074,0.148087 -1.69914,0.376793 -1.99646,0.508212 -0.29731,0.131418 -1.08789,0.466354 -1.75684,0.744299 -0.70781,0.294084 -2.02112,1.2963 -3.1415,2.397337 -2.25486,2.2159384 -3.47483,4.5282904 -3.97136,7.5273954 l -0.31995,1.932544 -2.54512,0.07832 c -2.82206,0.08684 -2.98279,0.0029 -2.99449,-1.564878 -0.0317,-4.241773 -4.00738,-9.2634334 -8.80739,-11.1245124 l -1.59976,-0.620289 -18.24262,-0.08469 c -10.976209,-0.05098 -18.917283,0.02037 -19.936381,0.178964 -3.866071,0.601901 -7.861478,3.491918 -9.750846,7.0531304 -1.128951,2.127938 -1.212006,2.722854 -1.325967,9.497669 l -0.111983,6.657127 15.832093,15.82952 c 8.707652,8.706222 15.832104,15.909482 15.832104,16.007212 0,0.30946 -3.325245,3.63556 -3.628795,3.62974 -0.15968,-0.003 -7.800852,-7.52176 -16.980374,-16.708222 l -16.690041,-16.7027 0.0058,-6.60376 c 0.0078,-8.845632 0.561811,-11.429527 3.356417,-15.6551084 0.970476,-1.467405 3.234462,-3.839077 4.783865,-5.011446 0.872207,-0.65995 3.153894,-1.965669 3.761187,-2.152359 0.36349,-0.11176 0.782518,-0.289851 0.931174,-0.395764 0.148657,-0.105886 1.12168,-0.42547602 2.162273,-0.71019402 1.781466,-0.487389 3.014507,-0.517631 21.108274,-0.517631 13.77341,0 19.32371,0.0857 19.59559,0.302604 0.20862,0.166449 0.83028,0.383831 1.38146,0.483103 0.55118,0.09927 1.34176,0.35763702 1.75684,0.57414502 0.41509,0.216509 0.96755,0.394415 1.2277,0.395314 0.26015,0 0.473,0.11512 0.473,0.253736 0,0.138641 0.27366,0.337476 0.60814,0.441854 0.33447,0.104404 0.66895,0.264954 0.74328,0.356843 0.0743,0.09186 0.65077,0.516837 1.28098,0.944351 1.04159,0.70657 3.62315,3.311843 4.68694,4.730009 0.41975,0.559568 0.45138,0.539433 1.83859,-1.170331 0.77632,-0.956839 1.86122,-2.11582 2.41089,-2.575507 1.30445,-1.09093 1.35456,-1.127178 2.62109,-1.895211 0.59463,-0.3606 1.12168,-0.752025 1.17123,-0.869844 0.0496,-0.117819 0.35362,-0.21836 0.67571,-0.223387 0.32209,-0.005 1.07213,-0.244184 1.66675,-0.531416 0.59463,-0.287205 1.33047,-0.52633602 1.63522,-0.53138902 0.30475,-0.005 0.70611,-0.161211 0.89192,-0.347028 0.26402,-0.264027 4.6011,-0.337846 19.85236,-0.337846 18.1925,0 19.6244,0.03373 21.13624,0.498052 2.03763,0.62581802 5.13455,1.93365402 5.54082,2.33992202 0.28976,0.289771 1.87841,1.351412 2.02224,1.351412 0.29267,0 3.16555,3.117956 3.85332,4.18203 1.0179,1.5748274 1.87701,3.3596274 2.5561,5.3102674 0.59533,1.710055 0.6011,1.888014 0.68925,21.250409 l 0.0889,19.525912 -16.29468,0.0697 -16.29469,0.0697 -0.0701,13.58178 -0.0701,13.58177 H 152.843 136.49331 Z"
       id="path2" /><path
       style="fill:#565656;fill-opacity:1;stroke:none;stroke-width:0.306464;stroke-dashoffset:85.8076;stroke-opacity:1"
       d="m 15.541334,81.571997 c -0.44597,-0.12393 -1.303855,-0.34996 -1.906415,-0.50233 -1.538815,-0.38913 -2.998605,-1.08009 -4.7685405,-2.25708 C 4.193263,75.704977 1.258687,71.250817 0.285687,65.788627 0.095608,64.721587 0,53.484417 0,32.210985 V 0.23712558 l 0.608139,-0.146843 c 0.334476,-0.08078 15.021036,-0.113507 32.636798,-0.07273 l 32.028663,0.07414 0.07702,2.77039902 0.07703,2.770426 H 51.903991 38.380336 V 34.147485 62.662457 h -2.7016 -2.701605 L 32.908321,34.215055 32.839511,5.7676666 H 19.190168 5.540823 V 35.498895 c 0,32.522142 -0.104054,30.188382 1.4943175,33.515222 1.148108,2.38969 3.8240965,4.90096 6.7493465,6.33389 1.915193,0.93816 4.854726,1.08408 21.893008,1.0868 16.10338,0.003 19.776953,-0.1551 21.217297,-0.91061 0.445969,-0.23395 0.962888,-0.42609 1.148707,-0.42702 0.18582,0 0.337855,-0.12329 0.337855,-0.27193 0,-0.14867 0.126552,-0.2703 0.281228,-0.2703 0.154675,0 0.658476,-0.27366 1.11956,-0.60815 2.939852,-2.13262 5.210064,-5.96738 5.522431,-9.32833 l 0.181793,-1.95601 h 2.760083 2.760088 l 0.162187,1.73683 c 0.17227,1.84478 0.918805,4.47971 1.269212,4.47971 0.115429,0 0.287803,0.31049 0.383048,0.68998 0.09524,0.37949 1.051046,1.5671 2.124003,2.63911 2.558254,2.55606 4.641368,3.62294 7.761933,3.97531 2.991599,0.33782 33.78199,0.33753 36.72076,0 1.24274,-0.14287 2.39821,-0.37033 2.5677,-0.50543 0.16948,-0.13512 0.61222,-0.33779 0.98386,-0.45043 1.46697,-0.44452 4.91501,-3.44543 5.8456,-5.08756 1.91358,-3.37672 2.03411,-3.97182 2.18814,-10.8036 l 0.13899,-6.16437 -11.4516,-11.478682 c -6.29838,-6.31325 -13.42805,-13.44832 -15.84372,-15.85566 -2.41566,-2.40737 -4.392115,-4.566923 -4.392115,-4.798989 0,-0.530649 3.084635,-3.611827 3.481385,-3.477498 0.42075,0.142478 32.96317,32.622277 33.28194,33.217889 0.3522,0.65809 0.34353,11.65918 -0.0115,14.59365 -0.31035,2.56513 -0.46806,3.06826 -1.85496,5.91764 -2.15182,4.42092 -6.21832,7.97674 -11.09726,9.70359 l -2.04172,0.72266 -19.51739,0.0767 c -19.040941,0.0748 -19.571383,0.0629 -21.728965,-0.48802 -2.579838,-0.65868 -5.023107,-1.82036 -6.709802,-3.19027 -1.601668,-1.30085 -3.748328,-3.52116 -4.290861,-4.4381 -0.241882,-0.4088 -0.565597,-0.74305 -0.719365,-0.74276 -0.153768,0 -0.691417,0.60478 -1.194774,1.34332 -1.327441,1.94765 -3.13482,3.52194 -6.112192,5.32397 -0.940263,0.56906 -2.392987,1.18819 -3.375337,1.43846 -0.522063,0.133 -1.43572,0.36748 -2.030344,0.52102 -1.312384,0.3389 -38.784872,0.34964 -40.00204,0.0114 z"
       id="path3" /></g></svg>
